# xmcd
#
# Track frame offsets:
# 150
# 3937
# 21529
# 44789
# 69288
# 89500
# 105617
# 133884
# 152281
# 169878
# 183798
# 194700
# 204707
#
# Disc length: 3715 seconds
#
#
# Revision: 9
# Processed by: cddbd v1.5.1PL0 Copyright (c) Steve Scherf et al.
# Submitted via: FreeRIP 2.91 
#
DISCID=b60e810d
DTITLE=Limp Bizkit - Three Dollar Bill, Yall$
DYEAR=1997
DGENRE=Hard Rock
TTITLE0=Intro
TTITLE1=Pollution
TTITLE2=Counterfeit
TTITLE3=Stuck
TTITLE4=Nobody Love's Me
TTITLE5=Sour
TTITLE6=Stalemate
TTITLE7=Clunk
TTITLE8=Faith
TTITLE9=StinkFinger
TTITLE10=Indigo Flow
TTITLE11=Leech
TTITLE12=Everything
EXTD=YEAR: 1997  ID3G:  79
EXTT0=
EXTT1=
EXTT2=
EXTT3=
EXTT4=
EXTT5=
EXTT6=
EXTT7=
EXTT8=
EXTT9=
EXTT10=
EXTT11=
EXTT12=
PLAYORDER=
